<svg xmlns="http://www.w3.org/2000/svg" viewBox="0 0 32 32" width="32" height="32">
  <rect width="32" height="32" rx="8" fill="#1c1917" />
  <rect width="32" height="32" rx="8" fill="#ef4444" fill-opacity="0.1" />
  <g transform="translate(4, 4)" fill="none" stroke="#ef4444" stroke-width="2" stroke-linecap="round" stroke-linejoin="round">
    <path d="M7 16.3c2.2 0 4-1.83 4-4.05 0-1.16-.57-2.26-1.71-3.19S7 2.9 7 2.9s-2.15 6.17-2.29 6.16c-1.14.93-1.71 2.03-1.71 3.19 0 2.22 1.8 4.05 4 4.05z"/>
    <path d="M12.56 6.6A10.97 10.97 0 0 0 14 3.02c.5 2.5 2 4.9 4 6.5s3 3.5 3 5.5a6.98 6.98 0 0 1-11.91 4.97"/>
  </g>
</svg>
